<svg width="200" height="54" viewBox="0 0 135 36" fill="none" xmlns="http://www.w3.org/2000/svg">
<g clip-path="url(#clip0_1862_4591)">
<path d="M43.3054 34.178V29.4609H46.4257V30.2287H44.1773V31.3705H46.1012V32.0889H44.1773V33.4036H46.4503V34.178H43.3054Z" fill="#ffffff"/>
<path d="M47.019 34.178L48.5169 31.7659L47.0928 29.4609H48.1383L49.1446 31.1118L50.2065 29.4609H51.2226L49.7378 31.7857L51.2636 34.178H50.2114L49.1085 32.4217L48.0433 34.178H47.0207H47.019Z" fill="#ffffff"/>
<path d="M54.1511 34.2781C53.6644 34.2781 53.2367 34.1776 52.8712 33.975C52.5041 33.7723 52.219 33.4873 52.0158 33.1199C51.8125 32.7524 51.7109 32.3208 51.7109 31.8249C51.7109 31.4624 51.7699 31.1329 51.8896 30.833C52.0092 30.5331 52.1796 30.2728 52.3992 30.0504C52.6188 29.8296 52.8778 29.6583 53.1777 29.538C53.4759 29.4177 53.8037 29.3584 54.161 29.3584C54.5182 29.3584 54.8443 29.4045 55.1065 29.4984C55.3688 29.5924 55.5998 29.7242 55.803 29.8939L55.3573 30.6122C55.2147 30.4755 55.0475 30.3733 54.8558 30.3074C54.6641 30.2415 54.4527 30.2086 54.22 30.2086C53.9725 30.2086 53.7496 30.2465 53.553 30.3189C53.3563 30.3931 53.1891 30.5002 53.0498 30.6402C52.9105 30.7803 52.8057 30.95 52.7319 31.1477C52.6582 31.3454 52.6221 31.5678 52.6221 31.815C52.6221 32.1544 52.6877 32.4427 52.8204 32.6832C52.9532 32.9238 53.14 33.1067 53.3842 33.2335C53.6283 33.3621 53.9168 33.4263 54.2527 33.4263C54.4789 33.4263 54.6985 33.3917 54.9148 33.3225C55.1311 33.2533 55.3343 33.1413 55.5261 32.9897L55.9292 33.7278C55.7063 33.9025 55.4474 34.0392 55.1524 34.1348C54.8591 34.232 54.5248 34.2798 54.1511 34.2798V34.2781Z" fill="#ffffff"/>
<path d="M56.6814 34.178V29.4609H57.5532V31.2947H59.6853V29.4609H60.5572V34.178H59.6853V32.0954H57.5532V34.178H56.6814Z" fill="#ffffff"/>
<path d="M61.2029 34.178L63.0023 29.4609H63.9741L65.8112 34.178H64.8296L64.4313 33.1104H62.5451L62.1599 34.178H61.2045H61.2029ZM62.7581 32.364H64.2101L63.4726 30.4495L62.7581 32.364Z" fill="#ffffff"/>
<path d="M66.4585 34.178V29.4609H67.3025L69.5247 32.71V29.4609H70.372V34.178H69.528L67.3058 30.8894V34.178H66.4585Z" fill="#ffffff"/>
<path d="M73.8938 34.2781C73.5251 34.2781 73.1809 34.2205 72.863 34.1068C72.545 33.9914 72.2665 33.8283 72.0272 33.6141C71.7879 33.4 71.6011 33.1429 71.4667 32.8414C71.3323 32.5399 71.2651 32.2005 71.2651 31.8249C71.2651 31.4492 71.3291 31.1098 71.4585 30.8066C71.588 30.5035 71.7666 30.2432 71.9993 30.029C72.232 29.8131 72.5024 29.6484 72.8138 29.5314C73.1252 29.4161 73.4611 29.3584 73.8266 29.3584C73.9938 29.3584 74.1658 29.3716 74.3428 29.3996C74.5198 29.4259 74.6952 29.4721 74.8705 29.5347C75.0459 29.5973 75.2147 29.6846 75.3753 29.795L75.0033 30.4788C74.8361 30.3717 74.6558 30.2909 74.4641 30.2382C74.2724 30.1855 74.0724 30.1591 73.8643 30.1591C73.6021 30.1591 73.3677 30.197 73.1563 30.2745C72.9466 30.3503 72.7679 30.4623 72.6204 30.6056C72.4729 30.7506 72.3599 30.9253 72.2812 31.1312C72.2025 31.3372 72.1632 31.5695 72.1632 31.8265C72.1632 32.189 72.2402 32.4954 72.3926 32.7459C72.545 32.9979 72.7548 33.1874 73.0219 33.3176C73.2891 33.4461 73.5939 33.512 73.938 33.512C74.097 33.512 74.2412 33.4972 74.374 33.4659C74.5067 33.4346 74.6149 33.4016 74.7017 33.3637V32.3257H73.6725V31.6107H75.4752V33.8827C75.3458 33.9634 75.1868 34.0343 75.0016 34.0952C74.8164 34.1562 74.6231 34.2023 74.4248 34.2336C74.2265 34.2649 74.0495 34.2814 73.8905 34.2814L73.8938 34.2781Z" fill="#ffffff"/>
<path d="M76.5945 34.178V29.4609H79.7148V30.2287H77.4663V31.3705H79.3903V32.0889H77.4663V33.4036H79.7394V34.178H76.5945Z" fill="#ffffff"/>
<path d="M56.7797 18.0003C56.7797 21.681 54.0544 23.8822 49.5247 23.8822H43.3054V12.1167H49.5247C54.056 12.1167 56.7797 14.3179 56.7797 17.9986V18.0003ZM54.1707 18.0003C54.1707 15.7315 52.5155 14.2685 49.2559 14.2685H45.9128V21.7304H49.2559C52.5155 21.7304 54.1707 20.2674 54.1707 17.9986V18.0003Z" fill="#ffffff"/>
<path d="M59.0854 12.1182H61.6928V23.8837H59.0854V12.1182Z" fill="#ffffff"/>
<path d="M82.3895 12.1182L82.3731 23.8837H79.8657V13.4626L75.318 23.8837H71.7733L67.242 13.4626V23.8837H64.7346V12.1182H69.2987L73.5776 22.4552L77.8238 12.1182H82.3878H82.3895Z" fill="#ffffff"/>
<path d="M103.086 12.1182L103.069 23.8837H100.562V13.4626L96.0143 23.8837H92.4696L87.9383 13.4626V23.8837H85.4309V12.1182H89.995L94.2739 22.4552L98.5201 12.1182H103.084H103.086Z" fill="#ffffff"/>
<path d="M116.075 21.2442H108.686L107.465 23.8837H104.874L110.424 12.1182H114.42L119.97 23.8837H117.296L116.075 21.2442ZM115.172 19.277L112.38 13.227L109.587 19.277H115.17H115.172Z" fill="#ffffff"/>
<path d="M127.393 19.4123H124.367V23.8822H121.76V12.1167H129.802C132.343 12.1167 134.349 13.2931 134.349 15.8485C134.349 18.2013 132.711 19.2442 130.387 19.3941L135.002 23.8822H131.675L127.396 19.4123H127.393ZM124.367 17.4286H129.667C130.905 17.4286 131.74 16.8914 131.74 15.8485C131.74 14.8056 130.905 14.2174 129.667 14.2174H124.367V17.4269V17.4286Z" fill="#ffffff"/>
<path d="M18 29.001L7 18.001H17.9983L18 29.001Z" fill="#6AE4FB"/>
<path d="M29 18.001L18 17.9993V7.00098L29 18.001Z" fill="#8F77F0"/>
<path d="M17.9992 0.000976562L0 18.0002L18.0008 36.001L36 18.0018L17.9992 0.000976562ZM18.0008 32.2726L3.72834 18.0002L17.9992 3.72932L32.2717 18.0018L18.0008 32.2726Z" fill="url(#paint0_linear_1862_4591)"/>
</g>
<defs>
<linearGradient id="paint0_linear_1862_4591" x1="9.00041" y1="27.0006" x2="26.9996" y2="9.00139" gradientUnits="userSpaceOnUse">
<stop stop-color="#6AE4FB"/>
<stop offset="1" stop-color="#8F77F0"/>
</linearGradient>
<clipPath id="clip0_1862_4591">
<rect width="200" height="54" fill="white"/>
</clipPath>
</defs>
</svg>
